<svg width="32" height="32" viewBox="0 0 32 32" fill="none" xmlns="http://www.w3.org/2000/svg">
<rect width="32" height="32" fill="#01B6D1"/>
<path d="M19.3684 21.7697H24.9996V20.7641H19.3684V21.7697Z" fill="white"/>
<rect x="11.6904" y="16.2524" width="8.16516" height="0.90724" fill="white"/>
<rect width="2.31513" height="1.54342" transform="matrix(1 0 0 -1 14.5531 10.3773)" fill="white"/>
<rect width="2.31513" height="0.771711" transform="matrix(1 0 0 -1 14.5531 8.83388)" fill="white"/>
<rect width="5.22894" height="1.00556" transform="matrix(1 0 0 -1 7 21.7697)" fill="white"/>
<path d="M12.1562 31.2458H10.1572V22.7468C10.1571 22.4305 9.90036 22.1736 9.58398 22.1736C9.26764 22.1736 9.01084 22.4305 9.01074 22.7468V31.2458H7V21.7205H12.1562V31.2458Z" fill="white"/>
<rect x="10.7831" y="20.7886" width="0.90724" height="10.4333" fill="#D2D2D2" fill-opacity="0.2"/>
<path d="M24.9993 31.2468H22.7004V22.7341C22.7004 22.4249 22.4501 22.1737 22.1409 22.1736C21.8316 22.1736 21.5803 22.4249 21.5803 22.7341V31.2468H19.3997V21.7205H24.9993V31.2468Z" fill="white"/>
<path d="M17.5874 16.2523H16.2271V13.5307C16.227 13.2801 16.0235 13.0775 15.7729 13.0775C15.5224 13.0776 15.3198 13.2802 15.3198 13.5307V16.2523H13.9585V12.6234H17.5874V16.2523Z" fill="white"/>
<path d="M17.5874 12.6234H16.2271V10.8089C16.227 10.5584 16.0235 10.3558 15.7729 10.3558C15.5224 10.3558 15.3198 10.5584 15.3198 10.8089V12.6234H13.9585V9.90172H17.5874V12.6234Z" fill="white"/>
<rect x="19.8712" y="20.7886" width="0.90724" height="10.4333" fill="#D2D2D2" fill-opacity="0.2"/>
<path d="M19.8555 31.2221H17.5879V20.3354C17.5879 19.3335 16.7753 18.5212 15.7734 18.521C14.7713 18.521 13.958 19.3333 13.958 20.3354V31.2221H11.6904V17.1596H19.8555V31.2221Z" fill="white"/>
<circle cx="15.6815" cy="1.30423" r="0.474914" fill="white"/>
<path d="M15.6814 0.829315L16.4403 8.07175H14.969L15.6814 0.829315Z" fill="white"/>
</svg>
