<svg width="179" height="303" viewBox="0 0 179 303" fill="none" xmlns="http://www.w3.org/2000/svg">
<path d="M123 208.245H179V198.245H123V208.245Z" fill="white"/>
<rect x="46.6444" y="153.377" width="81.1998" height="9.0222" fill="white"/>
<rect width="23.0232" height="15.3488" transform="matrix(1 0 0 -1 75.1135 94.9514)" fill="white"/>
<rect width="23.0232" height="7.6744" transform="matrix(1 0 0 -1 75.1135 79.6027)" fill="white"/>
<rect width="52" height="10" transform="matrix(1 0 0 -1 0.000244141 208.245)" fill="white"/>
<path d="M51.2815 302.488H31.3958V217.964C31.3958 214.817 28.8444 212.266 25.6975 212.266C22.5508 212.266 20.0002 214.818 20.0002 217.964V302.488H0.000244141V207.755H51.2815V302.488Z" fill="white"/>
<rect x="37.6222" y="198.488" width="9.0222" height="103.755" fill="#D2D2D2" fill-opacity="0.2"/>
<path d="M179 302.488H156.138V217.835C156.138 214.76 153.644 212.266 150.569 212.266C147.493 212.266 145 214.76 145 217.835V302.488H123.311V207.755H179V302.488Z" fill="white"/>
<path d="M105.289 153.377H91.7556V126.311C91.7556 123.82 89.7352 121.799 87.2438 121.799C84.7526 121.8 82.7331 123.82 82.7331 126.311V153.377H69.1999V117.289H105.289V153.377Z" fill="white"/>
<path d="M105.289 117.288H91.7556V98.7327C91.7554 96.5238 89.9645 94.7328 87.7556 94.7327H86.7331C84.5241 94.7328 82.7333 96.5238 82.7331 98.7327V117.288H69.1999V90.222H105.289V117.288Z" fill="white"/>
<rect x="128" y="198.488" width="9.0222" height="103.755" fill="#D2D2D2" fill-opacity="0.2"/>
<path d="M127.845 302.243H105.289V193.978C105.289 184.012 97.2097 175.933 87.244 175.933C77.2785 175.933 69.2001 184.012 69.2001 193.978V302.243H46.6444V162.4H127.845V302.243Z" fill="white"/>
<circle cx="86.3341" cy="4.72286" r="4.72286" fill="white"/>
<path d="M86.3328 0L93.8803 72.0236H79.2485L86.3328 0Z" fill="white"/>
</svg>
